<?xml version="1.0" encoding="iso-8859-1"?>
<!-- Generator: Adobe Illustrator 22.0.1, SVG Export Plug-In . SVG Version: 6.00 Build 0)  -->
<svg version="1.1" id="Layer_1" xmlns="http://www.w3.org/2000/svg" xmlns:xlink="http://www.w3.org/1999/xlink" x="0px" y="0px"
	 viewBox="0 0 100.25 100.25" style="enable-background:new 0 0 100.25 100.25;" xml:space="preserve">
<g>
	<path d="M82.5,9.25h-65c-0.829,0-1.5,0.671-1.5,1.5v78c0,0.828,0.671,1.5,1.5,1.5h65c0.828,0,1.5-0.672,1.5-1.5v-78
		C84,9.921,83.328,9.25,82.5,9.25z M81,87.25H19v-75h62V87.25z"/>
	<path d="M45.5,33.25h24c0.828,0,1.5-0.671,1.5-1.5s-0.672-1.5-1.5-1.5h-24c-0.829,0-1.5,0.671-1.5,1.5S44.671,33.25,45.5,33.25z"/>
	<path d="M45.5,51.25h24c0.828,0,1.5-0.671,1.5-1.5s-0.672-1.5-1.5-1.5h-24c-0.829,0-1.5,0.671-1.5,1.5S44.671,51.25,45.5,51.25z"/>
	<path d="M45.5,69.25h24c0.828,0,1.5-0.672,1.5-1.5s-0.672-1.5-1.5-1.5h-24c-0.829,0-1.5,0.672-1.5,1.5S44.671,69.25,45.5,69.25z"/>
	<path d="M30.144,37.106c0.972,0.749,2.138,1.144,3.345,1.144c0.238,0,0.479-0.016,0.719-0.047c1.457-0.189,2.753-0.934,3.649-2.097
		s1.287-2.607,1.097-4.063c-0.189-1.457-0.934-2.753-2.097-3.649c-1.164-0.897-2.609-1.287-4.063-1.097
		c-1.457,0.189-2.753,0.934-3.649,2.097S27.857,32,28.046,33.457C28.235,34.914,28.98,36.21,30.144,37.106z M31.52,31.225
		c0.407-0.529,0.997-0.868,1.659-0.954c0.109-0.014,0.218-0.021,0.327-0.021c0.548,0,1.079,0.18,1.52,0.52
		c0.529,0.407,0.868,0.997,0.954,1.659c0.085,0.662-0.091,1.318-0.499,1.847c-0.407,0.529-0.997,0.868-1.659,0.954
		c-0.664,0.085-1.318-0.091-1.847-0.499c-0.529-0.407-0.868-0.997-0.954-1.659C30.936,32.409,31.112,31.753,31.52,31.225z"/>
	<path d="M33.5,55.25c3.033,0,5.5-2.468,5.5-5.5c0-3.033-2.467-5.5-5.5-5.5s-5.5,2.467-5.5,5.5C28,52.782,30.467,55.25,33.5,55.25z
		 M33.5,47.25c1.378,0,2.5,1.122,2.5,2.5c0,1.379-1.122,2.5-2.5,2.5s-2.5-1.121-2.5-2.5C31,48.372,32.122,47.25,33.5,47.25z"/>
	<path d="M33.5,73.25c3.033,0,5.5-2.468,5.5-5.5s-2.467-5.5-5.5-5.5s-5.5,2.468-5.5,5.5S30.467,73.25,33.5,73.25z M33.5,65.25
		c1.378,0,2.5,1.121,2.5,2.5s-1.122,2.5-2.5,2.5s-2.5-1.121-2.5-2.5S32.122,65.25,33.5,65.25z"/>
</g>
</svg>
