<svg xmlns="http://www.w3.org/2000/svg" width="16" height="16" viewBox="0 0 16 16">
    <defs>
        <style>.a{fill:#131ba3;}.b{fill:none;}</style>
    </defs>
    <g transform="translate(0 0)">
        <path class="a" d="M5.625,76H3a3,3,0,0,1-3-3V67a3,3,0,0,1,3-3H5.625A.376.376,0,0,1,6,64.375v1.25A.376.376,0,0,1,5.625,66H3a1,1,0,0,0-1,1v6a1,1,0,0,0,1,1H5.625A.376.376,0,0,1,6,74.374v1.25A.376.376,0,0,1,5.625,76Zm3.684-9.471,2.425,2.222H5.75A.748.748,0,0,0,5,69.5v1a.748.748,0,0,0,.75.75h5.984L9.309,73.471a.752.752,0,0,0-.025,1.084l.684.684a.753.753,0,0,0,1.059,0l4.75-4.712a.749.749,0,0,0,0-1.066l-4.747-4.706a.75.75,0,0,0-1.059,0l-.684.684a.749.749,0,0,0,.022,1.081Z" transform="translate(0 -62)"/>
        <rect class="b" width="16" height="16"/>
    </g>
</svg>