<?xml version="1.0" standalone="no"?>
<!DOCTYPE svg PUBLIC "-//W3C//DTD SVG 20010904//EN"
 "http://www.w3.org/TR/2001/REC-SVG-20010904/DTD/svg10.dtd">
<svg version="1.0" xmlns="http://www.w3.org/2000/svg"
 width="1280.000000pt" height="996.000000pt" viewBox="0 0 1280.000000 996.000000"
 preserveAspectRatio="xMidYMid meet">
<metadata>
Created by potrace 1.15, written by Peter Selinger 2001-2017
</metadata>
<g transform="translate(0.000000,996.000000) scale(0.100000,-0.100000)"
fill="#ffffff" stroke="none">
<path d="M9073 9940 c-37 -22 -53 -48 -53 -85 0 -20 8 -29 35 -41 19 -7 46
-14 61 -14 16 0 36 -11 53 -29 l27 -29 49 26 c37 21 51 35 57 59 10 37 -5 83
-26 83 -20 0 -74 -46 -81 -70 -9 -30 -37 -34 -58 -9 -15 18 -17 32 -11 76 7
61 0 65 -53 33z"/>
<path d="M8695 9923 c-27 -7 -135 -72 -135 -82 0 -5 20 -19 44 -32 l44 -23 30
29 c16 17 41 38 55 48 15 10 27 22 27 27 0 11 -29 40 -38 39 -4 -1 -16 -4 -27
-6z"/>
<path d="M8822 9838 c-40 -20 -68 -41 -77 -58 -13 -25 -12 -32 8 -71 27 -53
67 -84 96 -74 19 6 19 8 6 21 -22 23 2 61 69 109 60 43 68 55 36 55 -12 0 -32
11 -46 25 -14 14 -26 25 -27 24 -1 0 -30 -14 -65 -31z"/>
<path d="M9381 9861 c-9 -6 -11 -15 -6 -27 5 -11 13 -37 19 -59 9 -33 16 -41
39 -43 28 -3 77 20 77 38 0 5 -14 29 -31 54 -31 47 -63 59 -98 37z"/>
<path d="M8352 9785 c-70 -26 -112 -58 -112 -87 0 -11 11 -34 23 -51 13 -18
30 -47 37 -64 7 -18 19 -33 27 -33 18 0 225 208 218 219 -9 16 -73 41 -102 40
-15 0 -57 -11 -91 -24z"/>
<path d="M9002 9735 c-12 -9 -33 -36 -48 -60 l-26 -45 19 -37 c20 -42 8 -40
166 -32 l47 3 0 57 c0 53 -2 59 -40 93 -44 40 -81 46 -118 21z"/>
<path d="M9281 9714 c-34 -25 -53 -76 -40 -111 27 -71 85 -93 132 -49 32 29
58 107 38 114 -7 2 -28 17 -46 33 -38 33 -51 35 -84 13z"/>
<path d="M8555 9678 c-31 -17 -105 -90 -120 -119 -11 -21 -11 -30 2 -57 16
-32 68 -79 94 -82 31 -5 38 1 45 38 6 28 23 52 76 102 37 36 68 71 68 78 0 38
-117 67 -165 40z"/>
<path d="M8003 9607 c-32 -24 -70 -58 -85 -75 l-27 -32 26 -46 c26 -47 73 -84
107 -84 10 0 30 14 45 31 14 17 54 59 89 92 90 87 91 90 38 126 -67 47 -117
43 -193 -12z"/>
<path d="M8739 9531 c-87 -62 -107 -116 -69 -178 29 -48 69 -64 147 -61 l66 3
2 56 c1 37 9 69 23 93 28 48 28 58 -7 95 -43 45 -91 43 -162 -8z"/>
<path d="M7654 9520 c-49 -11 -90 -46 -114 -95 l-22 -45 59 -107 c89 -164 151
-217 187 -160 8 12 22 49 31 82 14 49 27 70 71 113 l54 53 -17 27 c-37 60 -97
113 -147 127 -54 16 -56 16 -102 5z"/>
<path d="M9190 9510 c0 -5 -20 -10 -44 -10 -57 0 -143 -45 -174 -90 -55 -81
17 -161 144 -161 100 0 128 29 140 142 6 61 5 67 -21 97 -27 32 -45 41 -45 22z"/>
<path d="M9380 9486 c-14 -8 -35 -31 -46 -53 -24 -43 -50 -162 -41 -186 12
-32 149 -51 160 -22 11 27 47 187 47 206 0 27 -44 69 -72 69 -13 -1 -34 -7
-48 -14z"/>
<path d="M8239 9455 c-73 -37 -111 -76 -102 -103 12 -32 82 -108 117 -127 44
-24 58 -13 82 57 15 47 21 52 75 77 l58 26 -53 53 c-65 63 -84 65 -177 17z"/>
<path d="M8475 9333 c-76 -40 -104 -87 -80 -137 18 -37 103 -124 125 -126 31
-4 41 1 50 25 5 14 24 34 42 45 18 11 44 37 59 57 l25 38 -49 45 c-82 74 -114
84 -172 53z"/>
<path d="M7265 9328 c-120 -45 -148 -137 -77 -257 105 -178 131 -214 164 -232
29 -15 48 1 83 72 26 51 46 76 81 100 93 64 103 90 59 159 -14 22 -25 46 -25
53 0 24 -40 67 -83 89 -49 25 -157 33 -202 16z"/>
<path d="M1481 9294 c-275 -30 -417 -93 -500 -222 -59 -92 -82 -201 -101 -474
-6 -86 -16 -171 -22 -190 -16 -46 -111 -191 -161 -245 -23 -26 -87 -76 -142
-112 -113 -74 -268 -221 -310 -295 -34 -59 -88 -217 -109 -317 -8 -41 -20
-132 -26 -204 -6 -71 -31 -224 -55 -340 -24 -115 -46 -244 -50 -285 l-6 -75
101 104 c97 99 104 110 171 250 87 179 184 329 245 375 56 43 107 61 208 74
52 7 88 17 107 31 15 12 53 30 83 42 41 15 74 39 128 92 122 121 324 299 380
335 132 85 269 132 454 157 137 18 154 24 194 72 30 37 106 199 156 333 32 88
32 197 -1 372 -37 200 -77 310 -144 398 -15 19 -32 47 -39 62 -6 15 -24 34
-40 42 -72 37 -289 46 -521 20z"/>
<path d="M7930 9265 c-79 -29 -100 -53 -100 -110 0 -36 5 -47 28 -64 17 -12
34 -37 41 -61 14 -47 58 -80 106 -80 43 0 55 11 66 61 12 50 36 80 96 118 l42
26 -40 53 c-67 88 -121 101 -239 57z"/>
<path d="M8789 9212 c-38 -24 -117 -115 -129 -146 -17 -45 8 -76 102 -129 72
-41 91 -47 140 -47 98 0 139 55 142 191 0 38 2 69 4 69 1 0 11 -15 22 -32 25
-42 25 -98 0 -148 -11 -22 -20 -46 -20 -54 0 -17 60 -72 91 -81 52 -17 101 45
139 176 l22 75 -33 37 c-44 50 -98 65 -149 42 -36 -16 -39 -16 -78 4 -22 11
-43 25 -47 31 -4 6 -13 5 -25 -2 -16 -10 -28 -8 -65 10 -55 27 -81 28 -116 4z"/>
<path d="M2212 9150 c8 -14 36 -58 62 -98 74 -113 93 -168 133 -374 35 -185
37 -202 37 -408 1 -329 -42 -602 -134 -849 -35 -95 -171 -372 -232 -471 -25
-42 -57 -107 -71 -145 -14 -39 -46 -117 -72 -175 -87 -193 -151 -370 -234
-645 -84 -277 -103 -380 -121 -685 -6 -102 -22 -306 -35 -455 -14 -148 -31
-400 -40 -560 -42 -803 -81 -1351 -110 -1545 -37 -251 -99 -457 -182 -607
l-35 -63 115 0 c80 0 118 4 125 13 17 21 180 586 247 857 14 58 52 191 84 295
33 105 82 285 110 400 28 116 96 377 151 580 55 204 123 456 150 560 28 105
71 269 96 365 84 318 155 493 298 735 109 183 143 233 215 309 71 74 128 116
156 116 55 0 32 -73 -61 -190 -131 -165 -302 -446 -328 -541 -10 -35 -35 -118
-56 -184 -23 -74 -45 -170 -55 -250 -10 -71 -22 -141 -26 -154 -8 -20 -7 -22
8 -16 10 4 30 10 45 12 36 7 53 28 67 88 24 97 133 263 195 298 12 6 39 13 60
16 39 6 39 6 52 68 8 41 26 81 52 120 51 74 70 91 145 128 77 37 93 64 113
186 21 134 55 172 183 204 83 20 115 46 131 106 21 79 59 137 149 233 49 52
121 140 160 195 69 96 107 135 201 203 34 25 54 51 82 110 26 54 47 84 72 101
20 13 51 44 70 69 34 45 110 88 154 88 34 0 62 33 77 93 34 132 109 223 205
248 77 20 85 37 85 184 l0 120 -68 198 c-129 381 -228 599 -308 679 -92 92
-211 100 -412 30 -155 -55 -359 -131 -364 -136 -2 -2 23 -45 56 -97 34 -51 71
-122 83 -158 31 -92 29 -231 -6 -411 -51 -265 -135 -787 -144 -892 -6 -76 -14
-115 -28 -135 -13 -20 -19 -24 -21 -13 -5 22 82 665 106 785 63 321 70 427 33
535 -32 95 -74 162 -155 247 -128 135 -242 207 -344 220 l-49 5 31 -174 c33
-181 62 -434 51 -445 -3 -4 -13 2 -21 13 -41 51 -80 151 -150 384 -42 140 -80
260 -84 267 -4 7 -130 81 -281 164 -265 146 -341 192 -404 248 l-30 26 16 -25z"/>
<path d="M9338 9129 c-23 -13 -22 -34 2 -84 11 -22 19 -47 20 -55 0 -10 11 -4
31 17 30 29 31 33 19 67 -11 35 -34 66 -48 66 -4 0 -15 -5 -24 -11z"/>
<path d="M8214 9088 c-96 -65 -106 -133 -33 -213 40 -43 126 -89 151 -80 15 6
43 -45 31 -56 -5 -3 -35 -17 -67 -30 -78 -32 -116 -67 -116 -109 0 -70 39
-116 176 -209 74 -50 114 -60 149 -37 27 18 71 82 87 128 17 47 2 73 -73 132
-81 63 -115 104 -130 158 -14 53 -4 96 41 172 l38 64 -50 56 c-48 55 -51 56
-103 56 -43 0 -62 -6 -101 -32z"/>
<path d="M6929 9066 c-54 -14 -141 -68 -169 -104 -30 -37 -25 -60 24 -103 24
-21 58 -62 77 -91 40 -65 95 -125 131 -144 35 -18 35 -18 41 14 11 55 49 96
115 122 34 14 73 37 88 51 l26 26 -32 64 c-47 94 -96 156 -132 168 -40 14
-111 13 -169 -3z"/>
<path d="M7605 8994 c-44 -31 -94 -69 -112 -84 l-31 -28 38 -79 c21 -43 56
-99 78 -123 l39 -44 56 13 c30 8 65 11 76 8 19 -5 21 -1 21 43 0 52 24 95 87
161 34 36 35 37 19 68 -40 76 -103 121 -171 121 -11 0 -56 -25 -100 -56z"/>
<path d="M8536 8932 c-65 -49 -90 -84 -83 -114 11 -44 85 -147 128 -178 52
-37 108 -40 155 -8 41 28 93 105 100 149 6 32 2 38 -55 87 -73 63 -137 102
-171 102 -14 0 -47 -17 -74 -38z"/>
<path d="M9300 8864 c-17 -15 -37 -38 -45 -53 -21 -43 -65 -171 -57 -171 4 0
35 23 69 51 40 32 63 60 67 77 23 121 17 138 -34 96z"/>
<path d="M7960 8857 c-119 -56 -139 -135 -58 -223 55 -60 99 -85 149 -86 51
-1 69 19 69 74 0 31 8 47 42 84 l41 45 -39 40 c-67 69 -144 94 -204 66z"/>
<path d="M6506 8853 c-37 -10 -97 -54 -116 -86 -42 -68 -14 -164 81 -283 60
-76 124 -118 164 -108 23 6 59 42 122 122 10 12 40 30 67 40 86 30 86 59 1
167 -79 100 -95 116 -140 136 -38 18 -132 24 -179 12z"/>
<path d="M8949 8796 c-44 -30 -96 -106 -105 -153 -21 -112 207 -138 270 -32 9
16 24 52 32 80 14 47 14 52 -2 70 -9 10 -33 23 -53 30 -20 6 -40 15 -45 20
-18 16 -61 9 -97 -15z"/>
<path d="M7299 8771 c-52 -20 -124 -68 -156 -102 -41 -45 -39 -69 13 -139 27
-35 60 -70 75 -79 15 -8 40 -34 55 -58 28 -42 62 -62 83 -48 6 3 11 28 11 54
0 46 2 50 80 125 44 43 80 83 80 90 -1 17 -82 127 -110 147 -37 28 -79 31
-131 10z"/>
<path d="M3000 8675 c0 -14 31 -65 40 -65 5 0 0 16 -11 35 -20 33 -29 42 -29
30z"/>
<path d="M6183 8595 c-101 -31 -173 -98 -173 -159 0 -42 23 -76 92 -141 35
-33 73 -75 83 -93 25 -41 43 -46 110 -31 47 10 57 10 79 -5 26 -16 26 -16 26
14 0 56 44 129 93 156 16 9 11 20 -42 100 -67 102 -101 137 -153 158 -44 19
-59 19 -115 1z"/>
<path d="M8705 8551 c-50 -23 -61 -36 -76 -94 -20 -72 2 -109 87 -149 36 -17
85 -33 108 -35 39 -5 47 -2 85 33 41 37 81 99 81 127 0 22 -41 53 -100 77 -30
13 -62 31 -72 41 -21 24 -61 24 -113 0z"/>
<path d="M7595 8536 c-91 -43 -179 -137 -158 -169 4 -7 8 -32 8 -57 l0 -45 64
-32 c73 -37 100 -40 185 -16 88 23 125 62 140 146 5 29 16 43 46 64 22 14 40
29 40 33 0 12 -66 59 -112 80 -61 28 -149 26 -213 -4z"/>
<path d="M6945 8531 c-62 -38 -165 -142 -165 -166 0 -33 88 -134 168 -195 37
-27 70 -50 74 -50 4 0 18 24 30 53 12 28 45 81 71 116 l49 65 -33 69 c-57 117
-122 153 -194 108z"/>
<path d="M9085 8494 c-13 -14 -31 -50 -40 -79 -19 -66 -19 -65 4 -65 33 0 80
48 91 93 6 23 13 50 16 60 9 28 -43 22 -71 -9z"/>
<path d="M8009 8441 c-79 -51 -127 -118 -112 -158 9 -25 202 -221 235 -238 98
-53 199 37 215 191 l6 55 -59 61 c-95 97 -128 118 -189 118 -39 0 -61 -7 -96
-29z"/>
<path d="M5816 8335 c-76 -27 -129 -85 -142 -153 -16 -84 52 -260 124 -323 32
-29 40 -31 93 -27 69 5 95 24 109 82 21 81 42 115 84 139 51 28 65 74 32 110
-11 13 -42 51 -69 86 -26 34 -62 70 -80 81 -37 23 -95 25 -151 5z"/>
<path d="M6594 8321 c-101 -36 -121 -56 -136 -139 -14 -74 0 -118 66 -208 42
-59 45 -60 109 -72 43 -8 74 -9 90 -3 28 11 88 87 132 167 l28 50 -38 55 c-56
80 -96 119 -121 119 -12 0 -27 7 -34 16 -26 30 -44 33 -96 15z"/>
<path d="M8493 8303 c-45 -31 -53 -41 -53 -68 0 -18 -9 -44 -20 -58 -11 -14
-20 -28 -20 -31 0 -19 113 -164 135 -174 111 -51 240 61 218 188 -9 54 -21 70
-66 89 -23 10 -51 28 -62 41 -16 18 -66 50 -77 50 -2 0 -27 -17 -55 -37z"/>
<path d="M8995 8300 c-3 -5 -1 -10 4 -10 6 0 11 5 11 10 0 6 -2 10 -4 10 -3 0
-8 -4 -11 -10z"/>
<path d="M7184 8251 c-45 -28 -64 -59 -64 -109 0 -81 68 -169 149 -193 33 -10
55 -9 123 5 46 9 93 16 106 16 21 0 23 3 17 33 -4 17 -17 55 -30 82 -72 149
-206 224 -301 166z"/>
<path d="M8887 8219 c-23 -14 -48 -63 -63 -126 -15 -67 -8 -68 76 -12 53 36
121 112 109 123 -9 7 -73 26 -88 26 -9 0 -24 -5 -34 -11z"/>
<path d="M7733 8154 c-29 -15 -77 -47 -107 -71 -64 -49 -68 -67 -35 -138 28
-60 169 -208 222 -233 109 -52 201 -16 232 92 8 28 15 79 16 113 2 59 0 64
-39 111 -84 100 -156 152 -209 152 -16 0 -52 -12 -80 -26z"/>
<path d="M5475 8079 c-80 -23 -167 -136 -167 -218 0 -57 7 -72 86 -176 104
-139 158 -179 202 -150 20 13 24 24 24 70 0 30 4 55 9 55 5 0 14 15 21 33 6
19 31 48 61 70 l49 39 -41 78 c-83 155 -165 222 -244 199z"/>
<path d="M6244 8076 c-17 -8 -43 -29 -57 -47 -30 -40 -117 -211 -117 -229 0
-8 28 -44 63 -80 34 -37 74 -82 88 -99 24 -28 32 -31 82 -31 30 0 68 3 83 6
29 5 29 7 29 67 0 54 6 75 47 159 l47 97 -62 67 c-57 62 -120 104 -157 103 -8
0 -29 -6 -46 -13z"/>
<path d="M8327 8025 c-41 -51 -80 -68 -147 -63 l-57 4 -16 -104 c-21 -140 -6
-177 95 -228 91 -46 163 -25 265 78 l61 63 -8 53 c-12 69 -43 118 -92 143 -26
13 -44 32 -54 55 -8 19 -15 34 -17 34 -1 0 -15 -16 -30 -35z"/>
<path d="M6894 8031 c-36 -16 -64 -60 -64 -103 0 -49 47 -142 98 -194 38 -39
123 -84 160 -84 46 0 112 52 155 123 17 26 17 27 -3 27 -21 0 -43 28 -55 70
-10 36 -87 149 -105 154 -33 10 -166 15 -186 7z"/>
<path d="M8665 7902 c-42 -26 -51 -39 -85 -123 -17 -40 -36 -77 -43 -82 -21
-15 121 1 153 18 37 19 53 44 76 119 18 57 18 58 -1 72 -26 19 -64 17 -100 -4z"/>
<path d="M7439 7887 c-55 -21 -95 -53 -114 -93 -16 -34 -16 -39 -1 -79 17 -43
70 -105 120 -138 15 -10 43 -43 63 -73 20 -30 50 -63 68 -74 92 -57 219 17
232 135 7 58 -9 95 -57 134 -21 17 -41 39 -45 50 -3 11 -35 38 -71 62 -36 23
-71 50 -78 61 -18 25 -72 31 -117 15z"/>
<path d="M6523 7810 c-61 -37 -54 -100 27 -235 26 -44 59 -103 74 -132 14 -29
34 -57 44 -62 29 -15 196 -25 220 -12 23 12 42 66 42 117 0 17 9 43 21 58 l21
27 -68 72 c-86 92 -149 145 -199 168 -54 25 -140 25 -182 -1z"/>
<path d="M5815 7749 c-50 -25 -104 -75 -120 -114 -18 -42 -5 -68 75 -150 37
-38 88 -92 113 -120 l45 -50 76 -3 c42 -2 76 -1 76 2 0 4 -6 17 -14 29 -14 20
-11 28 34 102 27 44 52 86 56 92 19 38 -98 187 -171 217 -51 22 -122 19 -170
-5z"/>
<path d="M5089 7741 c-38 -12 -60 -26 -114 -70 -60 -49 -74 -74 -75 -126 0
-45 9 -61 92 -158 32 -38 67 -85 77 -106 31 -60 39 -63 112 -46 73 17 133 19
157 6 15 -8 17 -3 14 40 -4 56 13 108 60 181 l30 48 -50 62 c-125 157 -202
199 -303 169z"/>
<path d="M10490 7683 c-14 -2 -178 -42 -365 -88 -242 -60 -387 -102 -505 -146
-238 -89 -588 -209 -865 -296 -132 -41 -252 -82 -267 -89 -58 -30 -104 -83
-213 -248 -67 -101 -156 -219 -216 -286 -56 -63 -181 -214 -278 -335 -96 -121
-216 -265 -266 -320 -50 -55 -129 -147 -176 -205 -46 -58 -126 -152 -177 -210
-52 -58 -126 -147 -164 -198 -59 -78 -85 -103 -157 -150 -72 -48 -140 -116
-128 -129 3 -3 320 108 686 240 90 33 179 73 216 97 35 23 87 50 117 62 85 32
205 101 330 190 64 46 159 109 213 141 53 32 169 113 258 179 325 244 508 348
827 473 172 68 212 88 347 171 169 105 572 299 711 344 260 84 472 110 881
110 267 0 300 -3 512 -40 30 -6 88 -10 128 -10 58 0 86 -6 142 -30 38 -16 69
-25 69 -21 0 5 -9 37 -19 72 -11 35 -27 115 -35 178 -10 70 -25 134 -39 165
-38 81 -107 150 -195 193 l-76 38 -166 0 c-191 0 -235 -9 -370 -71 -110 -50
-135 -53 -355 -40 -202 12 -296 -4 -632 -110 -97 -31 -230 -69 -296 -85 -66
-16 -159 -46 -206 -66 -47 -19 -126 -49 -176 -65 -96 -31 -121 -45 -232 -125
-40 -28 -90 -57 -110 -63 -21 -7 -53 -21 -72 -32 -18 -10 -36 -16 -39 -14 -10
11 23 38 79 67 32 15 106 61 166 102 85 57 146 87 269 136 87 35 215 89 284
121 69 32 157 67 195 78 156 46 317 82 411 92 54 7 158 20 231 31 73 10 149
19 170 19 l38 1 -45 40 c-110 97 -302 155 -440 132z"/>
<path d="M8037 7660 c-11 -41 -64 -45 -176 -14 -22 6 -23 5 -19 -22 3 -16 11
-50 19 -76 11 -42 11 -49 -4 -66 -9 -10 -17 -23 -17 -29 0 -18 147 -152 175
-159 41 -10 99 24 158 92 78 91 64 146 -59 239 -64 48 -73 52 -77 35z"/>
<path d="M7157 7610 c-129 -33 -222 -135 -180 -199 10 -16 12 -26 5 -33 -8 -8
16 -32 76 -80 47 -37 108 -95 134 -128 36 -43 56 -60 73 -60 13 0 40 -7 58
-16 32 -15 37 -15 70 1 69 33 157 134 157 182 0 26 10 53 19 53 16 0 -13 -142
-38 -188 -9 -18 -7 -25 14 -46 14 -14 25 -29 25 -35 0 -15 155 -101 193 -108
65 -10 148 53 198 149 32 63 26 86 -46 176 -100 124 -122 134 -172 77 -26 -29
-38 -35 -70 -35 -79 1 -159 58 -250 182 -69 93 -166 133 -266 108z"/>
<path d="M8379 7571 c-66 -40 -89 -70 -89 -117 0 -14 -9 -43 -21 -65 -39 -78
-9 -86 137 -37 110 36 120 46 129 133 7 56 5 63 -20 93 -15 18 -36 32 -48 32
-12 0 -52 -18 -88 -39z"/>
<path d="M6264 7516 c-64 -30 -123 -82 -141 -124 -12 -29 -12 -37 3 -67 22
-47 198 -214 262 -248 62 -34 78 -32 151 18 35 24 58 34 72 30 15 -5 19 -2 19
20 0 14 5 36 11 47 18 34 12 89 -17 150 -20 43 -33 58 -48 58 -26 1 -43 14
-80 64 -33 43 -94 76 -146 76 -19 0 -58 -11 -86 -24z"/>
<path d="M5524 7471 c-71 -32 -111 -105 -101 -187 3 -32 16 -59 48 -100 90
-116 94 -122 79 -149 -7 -14 -10 -28 -7 -32 4 -3 48 6 99 22 75 23 97 26 120
17 27 -10 28 -9 28 18 0 55 21 128 51 174 16 26 29 49 29 51 0 3 -31 40 -70
84 -103 117 -180 145 -276 102z"/>
<path d="M4685 7414 c-129 -77 -180 -152 -176 -259 1 -22 15 -43 60 -85 73
-69 121 -135 121 -168 0 -24 1 -24 19 -8 28 25 89 45 138 46 38 0 43 3 48 28
3 15 31 78 62 141 l56 113 -24 47 c-13 25 -54 76 -90 114 -62 62 -70 67 -110
67 -33 0 -60 -9 -104 -36z"/>
<path d="M6849 7290 c-50 -27 -116 -101 -130 -149 -16 -52 -2 -101 46 -163 63
-83 189 -158 267 -158 75 0 176 82 195 158 18 69 2 96 -93 158 -47 31 -108 83
-137 115 -58 66 -84 73 -148 39z"/>
<path d="M8123 7270 c-30 -12 -49 -45 -67 -111 -20 -78 -42 -118 -72 -129 -21
-8 -23 -12 -12 -29 20 -32 47 -39 98 -25 25 7 65 15 90 19 25 3 52 11 61 18
29 22 99 126 99 146 0 28 -57 91 -97 107 -37 16 -68 17 -100 4z"/>
<path d="M5931 7228 c-60 -32 -95 -95 -87 -155 8 -63 41 -124 103 -192 72 -81
131 -115 197 -116 69 0 104 26 173 131 30 46 59 84 64 84 5 0 9 5 9 10 0 6 -7
10 -15 10 -9 0 -62 44 -119 98 -151 144 -236 178 -325 130z"/>
<path d="M5170 7171 c-49 -15 -87 -40 -129 -86 -43 -47 -91 -135 -91 -168 0
-10 20 -37 45 -61 25 -25 45 -52 45 -63 0 -57 103 -133 180 -133 42 0 138 31
195 63 36 20 40 27 41 63 1 22 11 59 23 82 12 23 21 49 21 58 0 30 -70 132
-126 183 -70 64 -133 83 -204 62z"/>
<path d="M7435 7035 c-16 -8 -61 -14 -98 -15 -64 0 -67 -1 -57 -19 5 -11 10
-38 10 -60 0 -30 -6 -44 -25 -59 -48 -38 -29 -86 57 -148 29 -20 72 -55 95
-77 l41 -39 94 48 c89 47 95 53 146 129 54 79 54 79 30 89 -113 45 -142 63
-188 113 -52 57 -58 59 -105 38z"/>
<path d="M4340 7011 c-121 -37 -180 -143 -132 -237 11 -22 38 -63 59 -90 22
-27 53 -70 71 -95 17 -26 39 -49 48 -53 9 -3 42 1 73 10 l56 15 0 62 c0 79 25
130 82 170 l43 31 -25 32 c-14 18 -43 60 -65 92 -21 33 -46 62 -55 66 -22 8
-124 6 -155 -3z"/>
<path d="M6554 6988 c-55 -11 -141 -65 -177 -110 -64 -80 -34 -192 70 -252 28
-17 80 -61 115 -97 50 -53 72 -68 110 -77 71 -18 95 -8 186 77 l82 77 0 60 0
60 -108 110 c-59 61 -120 119 -135 129 -37 24 -93 33 -143 23z"/>
<path d="M5663 6950 c-18 -10 -56 -42 -84 -69 -51 -49 -52 -51 -47 -100 7 -66
48 -149 110 -216 67 -73 123 -106 195 -112 49 -4 63 -1 92 19 30 20 118 127
137 165 8 16 -132 208 -191 262 -78 72 -150 89 -212 51z"/>
<path d="M7890 6946 c0 -8 -17 -23 -37 -33 -33 -15 -41 -27 -59 -81 -15 -44
-29 -68 -45 -76 -29 -14 -70 -73 -63 -91 11 -28 145 -34 215 -10 94 33 141 82
160 163 6 27 3 34 -14 43 -11 6 -47 31 -80 55 -63 47 -77 52 -77 30z"/>
<path d="M12220 6874 c0 -15 87 -112 158 -176 200 -180 238 -228 286 -361 27
-75 51 -117 66 -117 18 0 60 80 66 124 12 82 -50 272 -111 343 -50 59 -149
106 -317 151 -82 21 -148 37 -148 36z"/>
<path d="M4726 6824 c-83 -30 -146 -100 -146 -162 0 -52 24 -97 105 -191 54
-65 89 -96 127 -115 60 -30 138 -35 158 -11 7 8 22 15 34 15 32 0 41 9 74 75
17 33 46 76 66 95 l36 34 -22 13 c-13 7 -30 12 -39 13 -19 0 -76 60 -139 147
-25 34 -61 71 -81 83 -43 24 -115 26 -173 4z"/>
<path d="M7115 6749 c-42 -20 -68 -27 -87 -23 -27 5 -28 4 -28 -38 0 -81 -18
-118 -94 -194 -128 -129 -306 -322 -306 -333 0 -23 239 -195 316 -227 27 -11
34 -10 60 6 103 69 119 86 158 164 38 77 39 78 52 55 21 -37 16 -70 -16 -118
-17 -24 -30 -50 -30 -58 0 -19 37 -53 58 -53 32 0 210 48 230 61 44 31 92 103
92 137 0 36 -112 111 -167 112 -12 0 -35 -11 -51 -25 -65 -55 -214 -19 -316
76 -44 40 -78 110 -62 126 3 4 34 -23 69 -60 69 -74 129 -106 196 -107 40 0
48 5 95 53 28 29 72 81 99 115 47 62 47 63 32 97 -32 78 -194 266 -227 264 -7
0 -40 -14 -73 -30z"/>
<path d="M4036 6686 c-112 -40 -140 -79 -134 -186 3 -59 9 -75 47 -133 93
-143 197 -200 266 -145 25 19 27 25 21 69 -6 45 -4 50 23 75 16 14 39 48 50
74 12 27 25 51 29 54 13 8 -181 205 -208 211 -14 3 -54 -5 -94 -19z"/>
<path d="M6245 6701 c-49 -12 -93 -39 -135 -83 -59 -60 -64 -92 -34 -196 14
-48 32 -97 39 -109 8 -12 54 -41 102 -63 48 -23 100 -52 115 -65 57 -48 128
-38 223 34 56 42 85 90 85 140 0 41 -55 101 -132 145 -46 26 -69 48 -104 99
-59 89 -97 112 -159 98z"/>
<path d="M10257 6665 c-21 -8 -65 -30 -97 -50 -110 -67 -236 -117 -475 -190
-75 -23 -176 -64 -267 -111 -81 -41 -194 -92 -250 -115 -227 -90 -410 -201
-778 -470 -621 -457 -801 -558 -2195 -1242 -465 -228 -1840 -913 -2055 -1025
-52 -27 -128 -73 -168 -104 -50 -37 -99 -64 -155 -83 -56 -20 -117 -53 -192
-104 -249 -169 -306 -205 -464 -293 -214 -118 -279 -161 -414 -272 -62 -50
-138 -111 -169 -135 -32 -24 -58 -45 -58 -46 0 -2 35 10 78 26 117 45 327 149
501 248 86 49 192 104 236 121 44 17 129 58 190 90 60 32 151 70 200 85 217
65 318 102 429 157 98 49 127 59 156 55 41 -5 140 -44 287 -111 58 -27 130
-51 165 -57 35 -5 85 -17 112 -24 65 -19 350 -20 422 -2 27 7 83 33 124 58 41
25 122 65 180 88 58 24 177 83 265 131 88 49 192 101 232 116 69 26 71 28 51
42 -16 12 -42 14 -122 10 -55 -3 -128 -2 -161 3 -169 24 -151 26 -260 -29 -70
-36 -119 -69 -163 -111 -130 -126 -221 -141 -477 -80 -89 21 -91 21 -193 4
-80 -14 -131 -17 -225 -12 -67 4 -135 10 -151 15 -27 7 -22 11 75 49 126 50
180 66 329 99 63 14 158 42 210 60 120 44 220 66 440 98 209 31 375 46 527 46
l112 0 63 45 c35 24 97 65 138 91 279 176 385 242 720 444 206 124 422 256
480 292 58 36 173 105 255 153 180 105 241 148 380 265 59 50 152 122 208 162
191 134 242 177 447 383 160 160 206 201 211 187 9 -27 -10 -83 -46 -132 -44
-60 -313 -308 -445 -411 -57 -44 -192 -142 -300 -217 -107 -74 -305 -212 -439
-305 -376 -262 -693 -464 -1306 -836 -179 -109 -196 -121 -163 -121 59 0 177
26 266 59 109 40 314 146 636 332 486 281 474 272 901 613 166 133 365 290
441 350 104 82 243 214 554 525 444 445 612 605 755 721 120 98 226 198 375
353 128 133 132 147 37 112z"/>
<path d="M5332 6599 c-55 -27 -107 -87 -145 -167 -36 -77 -40 -130 -11 -169
11 -15 54 -47 95 -71 88 -52 124 -84 150 -134 15 -30 25 -38 47 -38 58 0 124
67 153 155 8 22 35 62 62 88 l48 48 -46 68 c-51 78 -164 189 -215 213 -62 28
-92 30 -138 7z"/>
<path d="M7545 6598 c-44 -16 -55 -27 -55 -59 0 -19 -5 -29 -15 -29 -20 0 -43
-38 -71 -116 -36 -97 -36 -96 49 -89 104 10 195 32 243 60 44 26 104 88 104
108 0 12 -128 117 -158 129 -24 10 -62 8 -97 -4z"/>
<path d="M4413 6465 c-139 -71 -142 -217 -8 -432 43 -70 2 -55 -75 27 -71 75
-98 90 -166 90 -59 0 -117 -31 -155 -83 -28 -38 -30 -47 -25 -97 6 -64 72
-205 137 -293 52 -70 74 -73 144 -17 35 27 60 40 82 40 75 0 92 18 113 124 17
81 59 124 180 184 73 36 97 53 102 72 7 27 26 102 35 137 3 15 -5 35 -29 65
-18 24 -50 68 -71 98 -47 71 -91 100 -159 106 -44 5 -62 1 -105 -21z"/>
<path d="M3729 6370 c-83 -44 -159 -170 -159 -263 0 -103 24 -145 138 -243 45
-39 51 -39 127 -10 22 8 54 15 71 16 l32 0 -5 63 c-6 74 13 129 66 190 l33 37
-50 82 c-71 117 -109 148 -179 148 -21 -1 -54 -10 -74 -20z"/>
<path d="M5861 6335 c-52 -30 -133 -101 -183 -162 -75 -90 -45 -150 136 -272
77 -53 126 -102 126 -129 0 -8 9 -26 21 -38 30 -32 38 -80 22 -149 -26 -122
-27 -125 -9 -144 9 -10 31 -21 48 -25 17 -3 52 -26 78 -50 91 -86 226 -89 319
-9 46 39 97 134 84 156 -7 13 -96 97 -260 245 -58 53 -73 54 -139 16 -40 -24
-104 -33 -104 -15 0 18 86 79 163 116 57 26 86 47 106 76 55 76 48 154 -17
175 -36 11 -151 119 -184 172 -41 66 -128 82 -207 37z"/>
<path d="M4967 6265 c-52 -18 -85 -50 -113 -110 -28 -59 -30 -95 -8 -158 27
-78 92 -141 208 -197 112 -55 170 -64 199 -32 10 10 17 25 17 34 0 32 34 114
56 133 12 11 25 34 28 50 6 27 -2 38 -91 130 -134 137 -215 178 -296 150z"/>
<path d="M6475 6083 c-67 -35 -155 -142 -175 -214 -15 -51 4 -95 53 -126 23
-14 56 -38 72 -53 86 -80 149 -98 223 -63 53 25 124 99 168 177 39 67 39 67
56 45 23 -28 23 -36 -8 -103 -28 -62 -25 -93 9 -101 12 -3 74 -7 138 -8 111
-2 117 -1 150 25 38 29 106 148 84 148 -6 0 -43 21 -81 46 -65 42 -72 45 -119
39 -151 -17 -161 -17 -204 4 -22 12 -73 49 -112 84 -135 118 -183 138 -254
100z"/>
<path d="M4689 5972 c-20 -10 -56 -35 -80 -55 -24 -20 -57 -47 -72 -60 -22
-17 -30 -34 -34 -70 -5 -42 -2 -52 31 -99 20 -29 36 -58 36 -64 0 -6 13 -30
30 -52 45 -62 173 -126 256 -126 73 -1 98 16 115 76 5 22 28 60 51 84 32 35
39 49 34 69 -10 38 -177 200 -244 236 -16 9 -36 30 -44 45 -17 36 -33 39 -79
16z"/>
<path d="M3535 5950 c-5 -8 -26 -10 -69 -6 -57 6 -64 5 -111 -25 -67 -42 -93
-67 -116 -111 -37 -72 -21 -136 63 -250 33 -46 62 -84 63 -86 1 -2 18 6 36 17
19 11 65 25 104 32 86 15 125 47 125 104 0 19 11 58 25 85 41 80 32 110 -58
198 -37 37 -57 50 -62 42z"/>
<path d="M5392 5932 c-37 -35 -48 -86 -33 -147 17 -69 37 -94 184 -234 146
-139 165 -149 248 -138 74 10 103 54 125 189 14 87 14 91 -5 104 -11 8 -30 31
-42 51 -39 63 -109 130 -153 147 -82 31 -192 56 -242 56 -43 0 -57 -5 -82 -28z"/>
<path d="M3823 5759 c-129 -55 -150 -97 -114 -233 25 -94 70 -195 100 -225 30
-30 76 -26 146 13 58 32 60 34 71 89 12 58 32 93 83 141 30 29 30 30 10 44
-11 8 -30 35 -41 61 -10 25 -29 57 -41 69 -24 26 -108 72 -129 72 -7 0 -45
-14 -85 -31z"/>
<path d="M5205 5661 c-53 -24 -155 -117 -171 -157 -30 -72 40 -185 205 -327
112 -98 128 -107 176 -107 92 0 173 84 231 236 13 36 24 68 24 73 0 4 -21 16
-46 26 -30 11 -83 52 -160 124 -178 164 -183 167 -259 132z"/>
<path d="M4373 5629 c-44 -13 -133 -97 -181 -171 -60 -93 -59 -108 8 -185 97
-113 122 -135 183 -164 107 -50 168 -34 230 63 19 29 44 62 57 73 35 32 53 73
46 111 -5 25 -27 51 -91 110 -62 56 -88 87 -96 114 -10 34 -17 40 -55 49 -49
13 -57 13 -101 0z"/>
<path d="M6726 5595 c-26 -8 -60 -25 -75 -39 -15 -14 -37 -26 -48 -26 -27 0
-40 -19 -22 -30 10 -7 7 -16 -14 -42 -15 -18 -39 -48 -53 -65 -14 -18 -27 -47
-27 -65 -3 -49 26 -59 158 -56 96 3 117 7 165 30 74 37 128 90 136 136 4 21
10 42 15 48 11 13 -75 99 -114 113 -35 14 -59 13 -121 -4z"/>
<path d="M3100 5564 c-14 -7 -32 -14 -41 -14 -9 0 -31 -14 -48 -32 -85 -87
-99 -203 -42 -343 42 -104 50 -112 87 -90 144 81 137 76 161 148 14 43 35 83
57 108 20 21 36 47 36 58 0 10 -17 40 -39 67 -21 27 -40 58 -42 69 -3 12 -14
21 -29 23 -14 2 -29 8 -34 13 -13 12 -36 10 -66 -7z"/>
<path d="M3489 5456 c-82 -33 -123 -61 -152 -103 -35 -52 -47 -86 -47 -140 0
-59 18 -95 97 -190 36 -43 73 -89 83 -102 l17 -25 44 38 c24 21 76 57 114 81
42 25 76 54 85 72 8 16 27 45 43 65 15 19 27 38 27 42 0 3 -25 57 -55 120 -64
133 -95 166 -158 166 -23 0 -67 -11 -98 -24z"/>
<path d="M5869 5385 c-20 -16 -47 -25 -68 -25 -48 0 -58 -8 -75 -58 -9 -23
-27 -57 -41 -76 -50 -65 -22 -113 83 -146 33 -11 82 -35 108 -55 40 -30 53
-36 78 -30 17 3 54 9 81 12 30 3 58 13 70 24 11 10 35 31 54 46 28 22 91 132
91 158 0 3 -15 5 -32 5 -43 1 -99 27 -175 83 -34 25 -79 55 -101 66 l-39 20
-34 -24z"/>
<path d="M4869 5297 c-55 -16 -97 -48 -133 -102 -72 -109 -49 -155 164 -322
172 -136 219 -141 321 -38 58 59 78 94 79 137 0 15 7 31 16 36 13 7 9 15 -24
49 -22 22 -68 57 -103 77 -35 21 -91 66 -124 101 -53 57 -65 65 -105 69 -25 3
-66 0 -91 -7z"/>
<path d="M3962 5245 c-82 -41 -148 -109 -158 -162 -11 -60 24 -145 95 -225 28
-33 28 -32 -86 25 -63 31 -127 57 -143 57 -65 0 -173 -107 -201 -200 -18 -61
1 -94 85 -147 39 -25 103 -78 141 -119 39 -41 76 -74 82 -74 6 0 30 15 52 34
23 19 55 37 71 41 38 8 135 96 160 145 l19 37 -28 21 c-29 21 -113 130 -89
116 7 -4 28 -18 46 -30 18 -12 54 -27 81 -33 91 -19 152 15 237 135 25 35 59
75 75 89 17 13 27 29 24 35 -4 6 -32 29 -63 52 -31 22 -90 76 -131 120 -74 80
-131 118 -174 118 -13 0 -56 -16 -95 -35z"/>
<path d="M6348 5225 c-14 -8 -48 -49 -73 -90 -26 -41 -55 -79 -64 -84 -24 -14
-13 -19 81 -32 77 -11 96 -11 165 5 91 21 117 35 143 79 26 41 25 44 -7 51
-16 4 -54 23 -86 43 -67 40 -120 50 -159 28z"/>
<path d="M2755 5146 c-54 -25 -100 -71 -122 -123 -19 -46 -16 -140 6 -188 19
-43 73 -95 97 -95 9 0 32 18 51 40 20 22 42 40 48 40 22 0 67 43 82 77 20 49
29 185 14 221 -23 56 -93 67 -176 28z"/>
<path d="M3123 5070 c-39 -24 -109 -94 -134 -135 -49 -79 -9 -166 107 -238 45
-28 54 -53 46 -136 l-4 -41 -63 83 c-117 155 -154 168 -259 93 -94 -68 -119
-98 -119 -146 0 -50 56 -167 110 -229 47 -53 77 -56 137 -13 26 19 58 32 82
34 39 3 40 4 91 103 65 126 146 208 221 222 51 9 47 2 75 118 7 33 17 67 21
76 7 16 -50 92 -140 186 -38 39 -46 43 -90 43 -31 0 -61 -7 -81 -20z"/>
<path d="M5580 5060 c-19 -10 -75 -27 -124 -37 l-89 -18 -12 -40 c-6 -23 -28
-65 -48 -95 -40 -59 -43 -75 -25 -115 23 -50 209 -154 292 -162 47 -5 56 -2
112 36 95 63 167 159 183 244 8 42 6 49 -21 82 -21 24 -60 50 -126 80 -52 25
-98 45 -101 45 -3 -1 -22 -9 -41 -20z"/>
<path d="M4574 4992 c-17 -11 -48 -43 -69 -72 -24 -32 -64 -69 -106 -96 -77
-49 -90 -74 -65 -122 18 -36 51 -62 158 -126 42 -26 96 -68 118 -94 l42 -47
75 -3 75 -4 89 89 89 89 0 54 c0 34 -8 69 -21 96 -24 50 -106 129 -206 197
-83 57 -132 68 -179 39z"/>
<path d="M6076 4940 c-43 -22 -90 -40 -102 -40 -18 0 -24 -5 -24 -23 0 -13
-19 -52 -42 -87 -84 -123 -81 -119 -67 -136 20 -24 120 -14 189 17 30 14 100
63 154 108 55 46 110 88 123 94 13 5 23 13 23 16 0 10 -123 79 -150 86 -18 4
-48 -6 -104 -35z"/>
<path d="M2502 4818 c-42 -11 -88 -74 -131 -182 -32 -80 -33 -84 -17 -114 9
-18 30 -48 47 -67 36 -41 44 -40 120 11 28 19 56 34 63 34 6 0 24 10 40 23 23
19 29 32 32 72 2 27 8 53 13 58 13 13 -29 95 -68 134 -36 36 -55 42 -99 31z"/>
<path d="M5170 4721 c-14 -5 -44 -18 -67 -29 -23 -12 -51 -22 -63 -22 -23 0
-24 -3 -8 -29 9 -15 6 -29 -20 -79 -18 -34 -32 -68 -32 -76 0 -16 102 -118
159 -160 42 -31 126 -51 175 -42 27 5 57 26 112 80 l75 72 -3 50 -3 49 -99 50
c-79 40 -101 56 -111 81 -8 19 -26 37 -48 47 -19 9 -37 17 -39 16 -1 0 -14 -4
-28 -8z"/>
<path d="M4205 4663 c-32 -8 -100 -69 -133 -118 -28 -43 -29 -48 -16 -73 8
-15 14 -41 14 -59 0 -21 9 -39 28 -56 15 -14 65 -59 110 -100 125 -114 192
-138 280 -102 54 23 76 48 107 121 20 46 32 64 44 62 25 -5 25 -37 1 -89 -13
-26 -20 -54 -17 -62 9 -23 154 -117 180 -117 12 0 41 9 65 20 24 11 62 24 85
30 43 11 227 100 227 110 0 4 -23 14 -51 24 -64 23 -105 57 -119 100 -25 77
-83 89 -169 35 -43 -27 -63 -33 -105 -33 -74 1 -146 35 -183 88 -32 44 -94 94
-151 121 -18 9 -42 31 -54 51 -11 19 -28 39 -38 44 -19 10 -70 11 -105 3z"/>
<path d="M3322 4583 c-105 -54 -181 -152 -182 -235 0 -29 12 -52 60 -116 126
-167 216 -214 310 -163 19 11 56 29 81 41 47 22 60 39 78 107 6 23 28 55 55
82 43 42 44 43 25 62 -10 10 -26 19 -34 19 -31 0 -71 30 -149 109 -117 121
-159 138 -244 94z"/>
<path d="M5670 4549 c-59 -32 -79 -48 -92 -77 -27 -58 -22 -70 15 -35 38 36
68 53 96 53 16 0 111 82 111 96 0 16 -68 -4 -130 -37z"/>
<path d="M2255 4409 c-78 -87 -116 -214 -79 -267 21 -30 55 -28 109 9 52 35
60 47 69 109 4 25 14 55 22 68 13 20 13 26 -2 55 -40 79 -66 85 -119 26z"/>
<path d="M2572 4409 c-80 -40 -176 -175 -165 -232 3 -15 24 -49 47 -75 23 -26
57 -69 75 -95 18 -27 44 -53 58 -60 23 -10 28 -8 54 21 17 19 38 32 53 32 30
0 39 12 61 83 11 35 33 75 57 102 28 32 35 45 24 45 -9 0 -25 15 -36 32 -11
18 -37 44 -57 58 -21 14 -51 45 -66 68 -32 48 -45 50 -105 21z"/>
<path d="M3920 4367 c-81 -43 -162 -103 -182 -135 -44 -71 -18 -190 53 -243
17 -13 41 -35 52 -48 69 -76 176 -159 220 -172 19 -5 45 -5 68 1 80 22 229
195 229 265 0 37 -16 53 -90 94 -62 34 -210 177 -210 203 0 41 -87 63 -140 35z"/>
<path d="M2931 4214 c-80 -75 -131 -148 -131 -188 0 -47 30 -94 99 -157 84
-78 142 -118 181 -125 24 -5 43 1 90 30 47 29 68 37 97 34 37 -3 38 -2 71 61
48 97 45 114 -30 152 -85 43 -174 133 -190 193 -12 44 -13 46 -50 46 -21 0
-38 5 -38 10 0 25 -35 5 -99 -56z"/>
<path d="M4520 4108 c-78 -23 -90 -29 -104 -51 -8 -13 -8 -20 2 -25 9 -6 5
-15 -14 -33 -52 -48 -69 -113 -38 -143 28 -29 74 -19 163 34 87 52 191 127
191 139 0 11 -87 80 -112 90 -16 6 -44 2 -88 -11z"/>
<path d="M2307 4075 c-53 -18 -131 -81 -157 -126 -17 -31 -20 -48 -15 -79 6
-37 20 -59 100 -158 40 -49 53 -88 36 -105 -18 -18 -40 2 -87 79 -23 38 -54
78 -68 88 -24 19 -26 19 -45 2 -20 -18 -56 -136 -67 -222 -11 -87 35 -139 100
-115 44 17 193 118 199 136 4 9 7 27 7 39 0 31 33 65 100 103 68 39 94 66 110
116 18 57 -6 109 -83 183 -34 33 -69 63 -77 66 -9 3 -32 0 -53 -7z"/>
<path d="M3545 4012 c-117 -62 -208 -171 -165 -197 6 -3 7 -17 4 -30 -4 -17 3
-33 28 -62 19 -21 58 -69 87 -106 89 -114 196 -155 284 -111 65 33 163 114
184 151 35 65 37 80 9 87 -14 3 -46 31 -72 61 -26 30 -56 55 -67 55 -34 0 -56
20 -107 95 -48 72 -74 95 -102 95 -7 0 -44 -17 -83 -38z"/>
<path d="M1308 3902 c-123 -191 -195 -411 -323 -989 -66 -299 -102 -399 -233
-640 l-60 -113 29 0 c16 0 44 -6 62 -13 38 -16 169 -31 196 -22 47 15 216 261
283 413 42 95 68 205 68 294 0 48 5 154 10 235 6 82 10 315 8 520 l-3 372 -37
-57z"/>
<path d="M2638 3880 c-41 -34 -62 -85 -52 -126 32 -134 216 -314 320 -314 34
0 81 17 137 50 31 18 35 24 25 40 -9 14 -6 27 15 63 15 25 27 52 27 61 0 18
-30 36 -60 36 -30 0 -93 35 -108 59 -6 11 -29 32 -50 46 -20 14 -65 45 -100
70 -75 53 -104 56 -154 15z"/>
<path d="M4274 3789 c-49 -39 -105 -64 -166 -73 -54 -8 -78 -27 -78 -61 0 -13
-12 -38 -27 -56 l-28 -32 37 6 c20 3 53 13 73 23 40 19 258 171 263 183 1 4
-6 15 -16 24 -18 16 -21 16 -58 -14z"/>
<path d="M3265 3723 c-38 -10 -88 -56 -107 -101 -27 -61 -20 -109 25 -164 19
-24 38 -59 42 -78 9 -45 38 -76 100 -107 67 -35 167 -30 243 12 50 27 142 114
142 133 0 5 -20 12 -45 15 -51 7 -128 44 -166 79 -14 13 -42 53 -62 89 -57
102 -108 139 -172 122z"/>
<path d="M2440 3666 c-62 -34 -125 -169 -90 -191 6 -3 10 -20 10 -36 0 -32 19
-54 86 -97 23 -15 66 -56 96 -92 62 -74 97 -93 126 -67 10 9 44 25 74 36 83
29 96 38 103 73 4 18 13 43 21 56 14 22 13 23 -22 38 -68 28 -105 59 -140 116
-22 37 -44 60 -59 64 -15 4 -32 22 -45 47 -12 23 -29 48 -38 55 -21 16 -90 15
-122 -2z"/>
<path d="M1956 3403 c-4 -26 -16 -82 -26 -123 -10 -41 -21 -97 -25 -125 l-6
-50 21 25 c23 27 120 216 120 235 0 6 -17 28 -39 49 l-38 38 -7 -49z"/>
<path d="M3045 3441 c-33 -14 -102 -89 -126 -137 -16 -34 -20 -54 -14 -82 4
-20 10 -57 15 -81 5 -33 17 -54 45 -79 34 -31 42 -34 82 -29 47 5 131 45 249
117 l72 44 -37 26 c-38 28 -110 104 -174 183 -39 48 -65 57 -112 38z"/>
<path d="M2190 3413 c-75 -56 -100 -87 -107 -126 -3 -21 -12 -45 -20 -52 -12
-12 -12 -18 1 -37 8 -13 20 -43 26 -67 14 -52 48 -87 150 -152 67 -43 96 -79
88 -113 -5 -23 -219 122 -247 168 -12 19 -34 44 -47 55 -34 26 -70 13 -123
-44 -80 -87 -100 -168 -61 -245 25 -48 120 -143 178 -177 42 -25 45 -25 75 -9
18 9 54 32 81 51 31 23 60 35 80 35 31 0 33 3 50 59 19 64 44 92 119 135 34
19 53 39 64 64 8 20 28 66 45 101 27 59 28 65 13 87 -8 13 -20 24 -25 24 -5 0
-70 61 -143 135 -73 74 -140 135 -148 135 -8 0 -30 -12 -49 -27z"/>
<path d="M2719 3124 c-113 -110 -147 -210 -96 -285 39 -59 102 -49 189 29 84
75 117 143 84 171 -8 6 -19 33 -26 59 -12 49 -44 92 -68 92 -8 0 -45 -30 -83
-66z"/>
<path d="M2419 2813 c-37 -32 -79 -115 -79 -159 0 -45 34 -84 74 -84 78 0 176
111 176 199 0 51 -26 71 -91 71 -37 0 -55 -6 -80 -27z"/>
<path d="M1752 2608 c-64 -160 -85 -255 -62 -283 22 -27 73 -29 129 -4 39 16
74 45 137 112 46 50 84 94 84 97 0 3 -51 56 -113 118 l-113 113 -62 -153z"/>
<path d="M2180 2598 c-42 -28 -120 -177 -128 -243 -4 -39 -1 -46 29 -74 19
-17 44 -31 55 -31 30 0 75 37 67 56 -4 10 10 33 39 62 100 106 120 133 108
147 -6 8 -21 33 -33 57 -20 39 -26 43 -62 46 -29 2 -50 -4 -75 -20z"/>
<path d="M1906 2316 c-56 -59 -75 -67 -166 -69 -50 -2 -83 -7 -94 -16 -17 -14
-56 -82 -56 -97 0 -14 133 7 172 27 36 18 62 54 51 72 -11 18 11 4 30 -19 18
-24 25 -26 71 -20 90 10 126 18 126 26 0 16 -42 105 -57 123 -23 25 -32 22
-77 -27z"/>
<path d="M8925 2204 c22 -17 46 -15 53 4 2 8 -8 12 -35 12 -36 -1 -37 -1 -18
-16z"/>
<path d="M170 51 c-31 -10 -70 -33 -70 -42 0 -7 191 38 199 47 7 7 -103 3
-129 -5z"/>
</g>
</svg>
