<?xml version="1.0" standalone="no"?>
<!DOCTYPE svg PUBLIC "-//W3C//DTD SVG 20010904//EN"
 "http://www.w3.org/TR/2001/REC-SVG-20010904/DTD/svg10.dtd">
<svg version="1.0" xmlns="http://www.w3.org/2000/svg"
 width="1280.000000pt" height="1245.000000pt" viewBox="0 0 1280.000000 1245.000000"
 preserveAspectRatio="xMidYMid meet">
<metadata>
Created by potrace 1.15, written by Peter Selinger 2001-2017
</metadata>
<g transform="translate(0.000000,1245.000000) scale(0.100000,-0.100000)"
fill="#ffffff" stroke="none">
<path d="M7174 12223 c-252 -491 -359 -691 -414 -773 -160 -239 -218 -428
-290 -965 -12 -88 -24 -163 -27 -167 -7 -13 -97 39 -176 101 -41 33 -250 209
-463 392 -423 362 -560 474 -630 515 l-46 27 -53 -53 c-54 -53 -54 -53 -39
-83 27 -51 256 -364 446 -608 57 -74 108 -140 112 -147 7 -12 -21 -13 -165 -7
-387 15 -709 -44 -1304 -238 -212 -69 -403 -122 -710 -197 -231 -57 -422 -104
-424 -106 -3 -2 2 -39 10 -82 l14 -77 35 3 c19 2 224 26 455 53 443 53 696 71
620 46 -108 -37 -378 -192 -590 -340 -306 -213 -537 -423 -667 -607 -155 -219
-409 -669 -562 -995 -104 -223 -145 -340 -182 -520 -28 -133 -29 -153 -29
-395 1 -280 12 -361 76 -553 80 -240 187 -392 481 -684 173 -172 271 -256 349
-301 72 -41 115 -84 133 -135 8 -23 20 -100 26 -172 18 -222 55 -331 141 -417
87 -87 216 -137 471 -183 74 -13 153 -31 176 -40 61 -25 107 -83 138 -179 50
-154 84 -186 225 -215 139 -29 274 -89 424 -189 157 -105 282 -208 362 -299
33 -38 141 -176 241 -309 327 -435 572 -711 693 -780 85 -49 186 -110 279
-170 100 -63 327 -177 456 -227 301 -118 684 -150 959 -81 152 39 396 187 554
339 53 50 130 118 171 151 186 151 377 383 548 664 180 298 239 468 352 1015
83 404 204 807 296 988 33 65 163 273 329 524 44 67 99 154 123 195 23 40 74
111 113 158 39 47 91 123 116 170 26 47 61 109 80 138 80 127 189 376 238 546
35 122 54 291 65 575 10 266 0 589 -25 771 -49 374 -171 640 -432 950 -118
139 -271 296 -385 393 -66 56 -145 124 -176 151 -253 216 -816 479 -1272 594
-92 23 -125 27 -265 27 -129 0 -168 -4 -200 -18 l-40 -17 40 36 c22 20 200
167 395 327 358 294 550 455 550 462 0 19 -75 135 -88 135 -29 0 -333 -158
-1427 -745 -451 -241 -591 -315 -599 -315 -10 0 30 56 81 114 51 57 254 360
307 456 42 78 140 318 248 610 81 219 310 898 323 958 l7 32 -231 0 -230 0
-117 -227z m666 -1912 c-15 -29 -12 -104 6 -129 19 -27 13 -28 -84 -5 -40 9
-71 21 -70 25 3 8 148 126 156 128 1 0 -2 -9 -8 -19z m-3300 -447 c0 -3 -54
-63 -119 -132 -196 -209 -310 -353 -332 -420 -6 -20 -25 -52 -41 -70 -131
-151 -197 -543 -128 -765 30 -96 81 -131 155 -107 44 15 69 56 126 208 23 62
43 111 45 109 2 -1 -10 -41 -26 -87 -16 -47 -40 -143 -54 -213 -29 -146 -46
-184 -82 -193 -41 -10 -71 14 -139 111 -139 200 -210 226 -352 128 -133 -91
-173 -91 -173 -1 0 100 68 171 190 198 128 29 167 76 195 238 9 51 27 125 42
165 38 106 124 282 181 367 58 88 100 130 225 225 50 39 102 85 114 104 29 42
30 94 3 121 l-20 20 95 0 c52 0 95 -3 95 -6z m3134 -114 c-53 -21 -90 -121
-64 -171 18 -35 -2 -13 -64 70 -31 41 -56 80 -56 87 0 15 32 21 130 22 51 0
68 -2 54 -8z m1033 -256 c-3 -3 -12 -4 -19 -1 -8 3 -5 6 6 6 11 1 17 -2 13 -5z
m80 -13 c1 -17 -2 -18 -34 -8 -35 11 -35 12 -12 18 39 11 45 10 46 -10z
m-3947 -316 c-177 -22 -315 -80 -400 -166 -19 -20 -25 -23 -14 -9 89 120 133
152 229 169 88 16 111 18 205 18 l85 1 -105 -13z m2358 1 c15 -8 44 -23 66
-32 52 -23 216 -189 308 -311 40 -54 111 -163 157 -243 47 -80 85 -146 87
-148 1 -2 36 7 78 20 89 27 83 6 61 224 -17 170 -44 309 -80 415 -27 78 -30
94 -14 66 6 -10 32 -47 59 -82 60 -79 114 -189 137 -275 25 -100 23 -259 -6
-332 -48 -124 -127 -205 -185 -194 -40 8 -55 24 -139 140 -173 243 -426 510
-533 562 -32 16 -74 28 -99 28 l-43 1 23 45 c25 49 82 130 91 130 3 0 18 -7
32 -14z m1507 -55 c46 -21 92 -70 102 -109 9 -39 -24 -94 -64 -106 -44 -12
-85 6 -128 57 -58 68 -56 144 4 166 36 13 41 13 86 -8z m-3040 -37 c153 -34
256 -65 262 -80 2 -7 -11 -63 -31 -126 -95 -304 -120 -463 -113 -698 6 -222
39 -321 136 -414 29 -28 31 -28 68 -13 21 8 55 19 75 25 l37 10 -6 -31 c-8
-47 -39 -70 -83 -62 -86 16 -212 122 -260 219 -54 110 -72 238 -74 511 0 132
3 301 7 375 8 130 8 137 -15 179 -29 55 -81 98 -150 123 l-53 19 45 -7 c25 -3
95 -17 155 -30z m983 -61 c6 -21 25 -53 42 -71 16 -18 30 -43 30 -55 1 -46 38
-107 75 -123 19 -8 35 -16 35 -19 0 -2 -14 -20 -31 -40 -54 -61 -85 -46 -154
74 -62 105 -125 163 -169 152 -5 -1 -3 6 5 15 20 24 131 104 144 104 7 0 17
-17 23 -37z m-411 -336 c-33 -51 -99 -287 -130 -467 -9 -53 -6 100 3 185 11
96 42 175 100 260 31 45 55 65 27 22z m538 -621 c31 -31 41 -87 25 -139 -16
-54 -37 -77 -70 -77 -76 0 -114 155 -54 221 24 26 70 24 99 -5z m-1750 -8 c48
-22 79 -121 55 -177 -14 -35 -37 -43 -77 -26 -84 35 -111 176 -40 205 30 12
32 12 62 -2z m2722 -340 c36 -29 41 -144 8 -207 -40 -78 -136 2 -137 115 -2
87 71 138 129 92z m-4717 -358 c42 -33 99 -99 119 -137 33 -64 -1 -123 -72
-123 -99 0 -217 113 -217 209 0 104 75 126 170 51z m3071 -618 c95 -48 216
-185 238 -268 20 -74 -22 -134 -93 -134 -50 0 -136 41 -192 92 -75 70 -98 115
-99 201 0 65 2 70 33 98 37 34 64 36 113 11z m-2436 -471 c44 -20 110 -87 125
-127 14 -35 12 -88 -2 -102 -24 -24 -81 -13 -144 28 -128 83 -171 153 -124
200 26 26 90 26 145 1z m5449 -29 c43 -38 61 -136 30 -166 -32 -33 -92 -10
-139 54 -25 34 -33 92 -17 117 22 35 84 32 126 -5z m-2062 -592 c56 -61 57
-161 2 -197 -73 -47 -176 106 -130 195 8 16 21 33 28 36 26 11 74 -5 100 -34z
m-1702 5 c26 -31 -22 -277 -62 -317 -32 -32 -75 -23 -124 26 -37 36 -44 50
-44 82 0 63 56 142 139 195 51 33 73 36 91 14z m3011 -905 c98 -51 142 -120
116 -182 -42 -101 -215 -78 -283 37 -75 129 26 217 167 145z m-1983 -222 c7
-7 12 -27 12 -46 0 -33 -40 -199 -62 -255 -22 -56 -75 -62 -123 -14 -85 85
-57 207 69 305 31 24 85 29 104 10z m1863 -871 c39 -25 89 -115 89 -159 0
-116 -129 -183 -240 -126 -65 34 -93 79 -88 146 10 122 145 201 239 139z
m-1370 -358 c23 -23 53 -66 67 -97 52 -114 25 -202 -61 -202 -58 0 -118 64
-146 156 -26 82 -26 110 -1 152 17 27 25 32 60 32 34 0 47 -7 81 -41z"/>
</g>
</svg>
